<svg width='200' height='200' fill="#000000" xmlns="http://www.w3.org/2000/svg" xmlns:xlink="http://www.w3.org/1999/xlink" version="1.1" x="0px" y="0px" viewBox="0 0 30 30" xml:space="preserve"><g transform="translate(-450 -260)"><g xmlns="http://www.w3.org/2000/svg" xmlns:xlink="http://www.w3.org/1999/xlink"><path d="M475.003,282.861C476.861,281.07,478,278.656,478,276c0-2.92-1.385-5.539-3.58-7.367c0.207,0.59,0.354,1.204,0.449,1.833    c1.33,1.528,2.131,3.447,2.131,5.534c0,2.288-0.956,4.469-2.69,6.141c-0.313,0.301-1.14,1.099-1.06,2.397    c0.028,0.464,0.171,0.934,0.429,1.413c-0.727-0.322-1.229-0.631-1.612-0.866c-0.539-0.331-0.965-0.593-1.513-0.593    c-0.151,0-0.302,0.022-0.447,0.064C469.107,284.852,468.063,285,467,285c-2.534,0-4.844-0.859-6.608-2.264    c-0.323-0.065-0.645-0.141-0.961-0.23c-0.059,0.043-0.273,0.175-0.451,0.283c-0.007,0.005-0.017,0.011-0.024,0.016    C460.963,284.766,463.82,286,467,286c1.183,0,2.321-0.17,3.389-0.483C471.229,285.27,472,287,477,288    C473,285,474.342,283.498,475.003,282.861z"/><path d="M454.997,278.861C455.658,279.498,457,281,453,284c5-1,5.771-2.73,6.611-2.483C460.679,281.83,461.817,282,463,282    c6.075,0,11-4.477,11-10s-4.925-10-11-10s-11,4.477-11,10C452,274.656,453.139,277.07,454.997,278.861z M463,263    c5.514,0,10,4.037,10,9s-4.486,9-10,9c-1.063,0-2.107-0.148-3.106-0.443c-0.146-0.042-0.296-0.064-0.447-0.064    c-0.548,0-0.974,0.262-1.513,0.593c-0.383,0.235-0.886,0.544-1.612,0.866c0.258-0.479,0.4-0.949,0.429-1.413    c0.08-1.299-0.747-2.097-1.059-2.397C453.956,276.469,453,274.288,453,272C453,267.037,457.486,263,463,263z"/></g></g></svg>