<svg width='200' height='200' fill="#000000" xmlns="http://www.w3.org/2000/svg" xmlns:xlink="http://www.w3.org/1999/xlink" version="1.1" x="0px" y="0px" viewBox="0 0 100 100" enable-background="new 0 0 100 100" xml:space="preserve"><path d="M6.7,27h53.2c1,5,5.5,9.1,11,9.1c5.5,0,10-4.1,11-9.1h11.4c0.9,0,1.7-0.6,1.7-1.5S94.2,24,93.3,24H82  c-0.7-6-5.4-9.9-11.1-9.9c-5.7,0-10.5,3.9-11.1,9.9H6.7C5.8,24,5,24.6,5,25.5S5.8,27,6.7,27z M70.9,17.2c4.3,0,7.8,3.5,7.8,7.8  c0,4.3-3.5,7.8-7.8,7.8c-4.3,0-7.8-3.5-7.8-7.8C63.1,20.7,66.6,17.2,70.9,17.2z"/><path d="M93.3,49H47.8c-0.7-6-5.4-9.9-11.1-9.9C31,39.1,26.3,43,25.6,49H6.7C5.8,49,5,49.6,5,50.5S5.8,52,6.7,52h19  c1,5,5.5,9.1,11,9.1c5.5,0,10-4.1,11-9.1h45.6c0.9,0,1.7-0.6,1.7-1.5S94.2,49,93.3,49z M36.7,57.8c-4.3,0-7.8-3.5-7.8-7.8  c0-4.3,3.5-7.8,7.8-7.8c4.3,0,7.8,3.5,7.8,7.8C44.5,54.3,41,57.8,36.7,57.8z"/><path d="M93.3,74H70.6c-0.7-6-5.4-9.9-11.1-9.9C53.8,64.1,49,68,48.4,74H6.7C5.8,74,5,74.6,5,75.5S5.8,77,6.7,77h41.8  c1,6,5.5,9.1,11,9.1c5.5,0,10-3.1,11-9.1h22.8c0.9,0,1.7-0.6,1.7-1.5S94.2,74,93.3,74z M59.5,82.9c-4.3,0-7.8-3.5-7.8-7.8  c0-4.3,3.5-7.8,7.8-7.8c4.3,0,7.8,3.5,7.8,7.8C67.3,79.4,63.8,82.9,59.5,82.9z"/></svg>