<?xml version="1.0" encoding="iso-8859-1"?>
<!-- Generator: Adobe Illustrator 16.0.0, SVG Export Plug-In . SVG Version: 6.00 Build 0)  -->
<!DOCTYPE svg PUBLIC "-//W3C//DTD SVG 1.1//EN" "http://www.w3.org/Graphics/SVG/1.1/DTD/svg11.dtd">
<svg xmlns="http://www.w3.org/2000/svg" xmlns:xlink="http://www.w3.org/1999/xlink" version="1.1" id="Capa_1" x="0px" y="0px" width="512px" height="512px" viewBox="0 0 44.236 44.236" style="enable-background:new 0 0 44.236 44.236;" xml:space="preserve">
<g>
	<g>
		<path d="M22.118,44.236C9.922,44.236,0,34.314,0,22.118S9.922,0,22.118,0s22.118,9.922,22.118,22.118S34.314,44.236,22.118,44.236    z M22.118,1.5C10.75,1.5,1.5,10.749,1.5,22.118c0,11.368,9.25,20.618,20.618,20.618c11.37,0,20.618-9.25,20.618-20.618    C42.736,10.749,33.488,1.5,22.118,1.5z" fill="#D80027"/>
		<path d="M22.119,31.924c-0.191,0-0.383-0.072-0.529-0.219l-6.534-6.516c-0.082-0.074-2.399-2.271-2.399-4.888    c0-3.21,1.902-5.127,5.087-5.127c1.817,0,3.516,1.436,4.376,2.302c0.86-0.866,2.56-2.302,4.376-2.302    c3.186,0,5.087,1.917,5.087,5.127c0,2.615-2.317,4.812-2.417,4.904l-6.517,6.498C22.502,31.852,22.311,31.924,22.119,31.924z     M17.743,16.676c-1.636,0-3.587,0.629-3.587,3.627c0,1.958,1.922,3.791,1.942,3.811l6.021,6.003l6.005-5.987    c0.036-0.034,1.958-1.867,1.958-3.825c0-2.998-1.951-3.627-3.587-3.627c-1.519,0-3.253,1.722-3.794,2.385    c-0.285,0.35-0.879,0.35-1.164,0C20.997,18.397,19.262,16.676,17.743,16.676z" fill="#D80027"/>
	</g>
</g>
<g>
</g>
<g>
</g>
<g>
</g>
<g>
</g>
<g>
</g>
<g>
</g>
<g>
</g>
<g>
</g>
<g>
</g>
<g>
</g>
<g>
</g>
<g>
</g>
<g>
</g>
<g>
</g>
<g>
</g>
</svg>
